<svg width="21" height="20" viewBox="0 0 21 20" xmlns="http://www.w3.org/2000/svg">
<path fill-rule="evenodd" clip-rule="evenodd" d="M12.896 0.489402C13.5829 0.1663 14.319 0 15.0624 0C15.8058 0 16.542 0.166301 17.2288 0.489402C17.9155 0.812443 18.5394 1.2859 19.0649 1.88272C19.5906 2.47936 20.0079 3.18805 20.2923 3.96768C20.577 4.74746 20.7234 5.58325 20.7234 6.42732C20.7234 7.27139 20.577 8.10718 20.2923 8.88695C20.0078 9.66666 19.5907 10.375 19.065 10.9717C19.0649 10.9718 19.0651 10.9717 19.065 10.9717L11.3683 19.7104C11.0283 20.0965 10.4769 20.0965 10.1369 19.7104L2.44015 10.9717C1.3786 9.76648 0.782227 8.1318 0.782227 6.42732C0.782227 4.72283 1.3786 3.08815 2.44015 1.88289C3.5017 0.677634 4.94148 0.000528645 6.44274 0.000528645C7.94401 0.000528645 9.38378 0.677634 10.4453 1.88289L10.7526 2.23174L11.0597 1.88305C11.0597 1.88311 11.0598 1.883 11.0597 1.88305C11.5852 1.28615 12.2093 0.812473 12.896 0.489402ZM15.0624 1.97708C14.5478 1.97708 14.0381 2.09222 13.5626 2.31589C13.0871 2.53958 12.6552 2.86744 12.2913 3.28074L11.3683 4.32875C11.0283 4.7148 10.4769 4.7148 10.1369 4.32875L9.21401 3.2809C8.47903 2.44642 7.48217 1.9776 6.44274 1.9776C5.40331 1.9776 4.40646 2.44642 3.67148 3.2809C2.93649 4.11538 2.52358 5.24718 2.52358 6.42732C2.52358 7.60745 2.93649 8.73925 3.67148 9.57374L10.7526 17.6134L17.8337 9.57374C18.1977 9.16063 18.4866 8.66998 18.6837 8.13014C18.8806 7.59029 18.9821 7.01167 18.9821 6.42732C18.9821 5.84297 18.8806 5.26434 18.6837 4.72449C18.4866 4.18465 18.1978 3.69417 17.8338 3.28106C17.47 2.86777 17.0377 2.53958 16.5623 2.31589C16.0868 2.09222 15.5771 1.97708 15.0624 1.97708Z"/>
</svg>
