<svg width="65" height="65" viewBox="0 0 65 65" fill="none" xmlns="http://www.w3.org/2000/svg">
<path d="M35.2309 23.95H11.9609C10.8609 23.95 9.96094 24.85 9.96094 25.95V41.06C9.96094 42.16 10.8609 43.06 11.9609 43.06H13.6909L13.2309 48.49C13.1709 49.36 14.1609 49.8799 14.8409 49.3499L22.7809 43.07H35.2309C36.3309 43.07 37.2309 42.17 37.2309 41.07V25.95C37.2309 24.85 36.3409 23.95 35.2309 23.95Z" stroke="#292929" stroke-width="2" stroke-miterlimit="10"/>
<path d="M53.2907 14.3601H26.2207C25.1207 14.3601 24.2207 15.2601 24.2207 16.3601V34.1301C24.2207 35.2301 25.1207 36.1301 26.2207 36.1301H42.8007L49.8807 41.6801C50.5607 42.2201 51.5607 41.6901 51.4907 40.8201L51.1507 36.1301H53.2907C54.3907 36.1301 55.2907 35.2301 55.2907 34.1301V16.3601C55.2907 15.2601 54.3907 14.3601 53.2907 14.3601Z" fill="white" stroke="#292929" stroke-width="2" stroke-miterlimit="10"/>
<path d="M36.4395 22.19C36.4395 22.19 36.7295 18.49 39.8795 18.49C43.0795 18.49 43.0695 21.55 43.0695 21.55C43.0695 25.12 39.2495 24.86 39.2495 28.31" stroke="#292929" stroke-width="2" stroke-miterlimit="10"/>
<path d="M39.1291 32.4C39.8691 32.4 40.4691 31.8 40.4691 31.06C40.4691 30.3199 39.8691 29.72 39.1291 29.72C38.389 29.72 37.7891 30.3199 37.7891 31.06C37.7891 31.8 38.389 32.4 39.1291 32.4Z" fill="#292929"/>
</svg>
