<svg width="19" height="22" viewBox="0 0 19 22" fill="#fafafa" xmlns="http://www.w3.org/2000/svg">
<path d="M6.59207 12.57C6.7409 12.57 6.8798 12.56 7.0187 12.54C7.48502 13.69 8.60616 14.5 9.90589 14.5C11.2056 14.5 12.3268 13.69 12.7931 12.54C12.932 12.56 13.0808 12.57 13.2197 12.57C14.9361 12.57 16.3351 11.16 16.3351 9.43C16.3351 8.72 16.0871 8.04 15.6703 7.5C16.097 6.96 16.3351 6.28 16.3351 5.57C16.3351 3.84 14.9361 2.43 13.2197 2.43C13.0709 2.43 12.932 2.44 12.7931 2.46C12.3268 1.31 11.2056 0.5 9.90589 0.5C8.60616 0.5 7.48502 1.31 7.0187 2.46C6.8798 2.44 6.73097 2.43 6.59207 2.43C4.87563 2.43 3.47669 3.84 3.47669 5.57C3.47669 6.28 3.72473 6.96 4.14143 7.5C3.7148 8.04 3.46676 8.72 3.46676 9.43C3.46676 11.16 4.86571 12.57 6.59207 12.57ZM9.90589 12.5C9.29075 12.5 8.79467 12.01 8.77483 11.4L8.89389 10.31C9.21138 10.43 9.54871 10.5 9.90589 10.5C10.2631 10.5 10.6103 10.43 10.9278 10.31L11.037 11.4C11.0171 12.01 10.521 12.5 9.90589 12.5ZM13.2197 10.57C12.9816 10.57 12.7633 10.5 12.5847 10.37L11.7811 9.8C12.3268 9.35 12.7137 8.71 12.8328 7.97L13.7059 8.39C14.1027 8.58 14.3607 8.98 14.3607 9.42C14.3607 10.06 13.8448 10.57 13.2197 10.57ZM12.5748 4.63C12.7732 4.5 12.9915 4.43 13.2197 4.43C13.8448 4.43 14.3508 4.94 14.3508 5.57C14.3508 6.01 14.1027 6.4 13.6959 6.6L12.8228 7.02C12.7038 6.28 12.3168 5.64 11.7612 5.19L12.5748 4.63ZM9.90589 2.5C10.521 2.5 11.0171 2.99 11.037 3.6L10.9278 4.69C10.6103 4.57 10.2631 4.5 9.90589 4.5C9.54871 4.5 9.21138 4.57 8.89389 4.69L8.77483 3.6C8.79467 2.99 9.29075 2.5 9.90589 2.5ZM6.59207 4.43C6.83019 4.43 7.04847 4.5 7.22706 4.63L8.03071 5.19C7.48502 5.64 7.09807 6.28 6.97901 7.02L6.10591 6.6C5.70905 6.4 5.45109 6.01 5.45109 5.57C5.45109 4.94 5.96701 4.43 6.59207 4.43ZM6.10591 8.4L6.97901 7.98C7.09807 8.72 7.48502 9.36 8.04063 9.81L7.23698 10.36C7.03854 10.49 6.82027 10.56 6.59207 10.56C5.96701 10.56 5.46101 10.05 5.46101 9.42C5.45109 8.99 5.70905 8.6 6.10591 8.4ZM9.90589 21.5C14.8369 21.5 18.8353 17.47 18.8353 12.5C13.9043 12.5 9.90589 16.53 9.90589 21.5ZM12.3268 19.06C13.0312 17.16 14.5294 15.64 16.4145 14.94C15.71 16.84 14.2119 18.35 12.3268 19.06ZM0.97644 12.5C0.97644 17.47 4.97485 21.5 9.90589 21.5C9.90589 16.53 5.90748 12.5 0.97644 12.5ZM3.39731 14.94C5.28242 15.65 6.7905 17.16 7.48502 19.06C5.59991 18.35 4.10175 16.84 3.39731 14.94Z" />
</svg>
