<svg width="18" height="19" viewBox="0 0 18 19" fill="none" xmlns="http://www.w3.org/2000/svg">
<g clip-path="url(#clip0_170_184)">
<path d="M17.7364 6.85972C17.7364 7.01523 17.6445 7.18487 17.4608 7.36865L13.612 11.122L14.5238 16.4233C14.5309 16.4728 14.5344 16.5435 14.5344 16.6354C14.5344 16.7838 14.4973 16.9093 14.4231 17.0118C14.3489 17.1143 14.2411 17.1655 14.0997 17.1655C13.9654 17.1655 13.824 17.1231 13.6756 17.0383L8.915 14.5361L4.15439 17.0383C3.99889 17.1231 3.85752 17.1655 3.73029 17.1655C3.58185 17.1655 3.47052 17.1143 3.3963 17.0118C3.32208 16.9093 3.28497 16.7838 3.28497 16.6354C3.28497 16.593 3.29204 16.5223 3.30618 16.4233L4.21801 11.122L0.358634 7.36865C0.181923 7.1778 0.0935669 7.00816 0.0935669 6.85972C0.0935669 6.59819 0.291484 6.43562 0.687317 6.372L6.00986 5.59801L8.39546 0.773787C8.52976 0.48398 8.70294 0.339077 8.915 0.339077C9.12705 0.339077 9.30023 0.48398 9.43453 0.773787L11.8201 5.59801L17.1427 6.372C17.5385 6.43562 17.7364 6.59819 17.7364 6.85972Z" fill="#EEAD13"/>
</g>
<defs>
<clipPath id="clip0_170_184">
<rect width="17.83" height="19" fill="white" transform="matrix(1 0 0 -1 0 19)"/>
</clipPath>
</defs>
</svg>
