<svg xmlns="http://www.w3.org/2000/svg" xml:space="preserve" width="42px" height="40px" version="1.1" style="shape-rendering:geometricPrecision; text-rendering:geometricPrecision; image-rendering:optimizeQuality; fill-rule:evenodd; clip-rule:evenodd" viewBox="0 0 1531759 1468320" xmlns:xlink="http://www.w3.org/1999/xlink"><defs><style>
    .fil0 {fill:#b25f68}
   </style></defs><g id="Слой_x0020_1"><metadata id="CorelCorpID_0Corel-Layer"></metadata><g id="_1494565920"><path class="fil0" d="M1262036 1401722c-30937,0 -50838,-884 -74173,-22396 -49760,-45876 -27575,-160749 50863,-160749 31268,0 58301,-2327 84163,25725 43182,46839 27076,157420 -60853,157420zm-839137 0c-28423,0 -56012,-2508 -77170,-26058 -43745,-48694 -25422,-157087 60519,-157087 36543,0 50646,-1412 79198,27361 48140,48511 22449,155784 -62547,155784zm955685 -186475c11568,2695 14192,3932 30078,3440 4695,-147 11183,-974 14802,-1094l31707 984c12732,0 1212,1022 9990,-3330l0 66598 -56608 0c-2898,-12434 -6695,-23119 -12138,-34482l-17831 -32116zm-835809 0c9077,2115 5844,2039 15761,2441l570304 889c-7627,11389 -10690,13858 -17833,28786 -5459,11413 -9228,21997 -12136,34482l-529457 0c-1488,-17883 -10716,-36069 -19421,-50505 -5460,-9052 -3509,-7792 -7218,-16093zm-289702 66598l-23309 0c0,-99957 -9451,-50433 59938,-66598 -2934,10985 -11893,21188 -17131,32818 -4560,10128 -7892,33780 -19498,33780zm829148 -705941l143186 0c11558,0 15416,21750 25502,44427 15121,33995 76399,188257 88338,201364 9511,10442 70941,49591 87042,59474 9163,5624 12652,9128 21618,15010 6706,4401 17254,9695 17254,19376l0 236423 -382940 0 0 -319670 153177 0c40678,0 40678,-63269 0,-63269l-153177 0 0 -193135zm-129866 -36628c0,43689 32822,36628 63267,36628l0 576074 -829147 0c0,-26349 3742,-92184 -5953,-110593 -13861,-26317 -60645,-22721 -60645,20686l0 123207c0,11458 5337,18527 12255,24393 14410,12220 18382,5051 28391,7699 13527,3577 -9123,-10801 3369,1453 4566,4479 2807,19015 2709,26268 -1514,113022 -9922,100022 96463,100022 15398,66100 84393,123207 149845,123207 47256,0 76455,-19622 103298,-39888 50886,-38418 41860,-83319 59868,-83319l516136 0c17741,0 2985,24259 59056,80801 54853,55313 142272,53561 199711,4811 20358,-17278 51543,-53146 54244,-85612 27803,0 55653,222 83436,189 28668,-35 43101,-12388 43101,-40148l0 -366289c0,-42573 -15553,-70287 -39080,-90787l-96237 -63599c-10361,-7726 -8509,-7762 -13679,-19618 -7180,-16465 -12568,-29727 -19895,-46705l-77458 -182275c-14767,-32828 -44414,-23245 -106622,-23245 -42399,0 -86892,1090 -127767,-1749 -9838,-684 -41354,1546 -58897,1561 -21409,18 -39769,7174 -39769,26828z"></path><path class="fil0" d="M642672 579235c-110598,0 -195637,-57937 -239757,-146513 -134691,-270404 246583,-523381 440541,-264055 34163,45676 45333,83865 51922,144771 4825,44616 -18912,108097 -44906,147265 -11114,16747 -17515,22170 -29324,37274 -12323,15764 -55882,45175 -74737,55130 -25161,13284 -66449,26128 -103739,26128zm-326331 -279713c0,70984 948,96621 29864,159943 4711,10316 6245,14147 12310,24318 35862,60140 77765,97690 142063,127660 120170,56013 269404,28379 366080,-67956 54941,-54747 89026,-145315 89026,-223986 0,-83807 -35985,-168588 -92289,-227382 -7376,-7702 -13513,-11571 -21690,-18268 -7712,-6316 -14920,-12091 -22521,-17438 -13886,-9766 -33688,-21197 -51353,-28565 -236863,-98785 -451490,82618 -451490,271674z"></path><path class="fil0" d="M0 799008c0,8851 6438,19384 12209,24420 7305,6379 15233,8880 27751,8880l376278 0c41686,0 49454,-66599 -6659,-66599l-369619 0c-24264,0 -39960,15907 -39960,33299z"></path><path class="fil0" d="M636013 272883c-20281,-13582 -62971,-73258 -86579,-73258 -22129,0 -33297,14154 -33297,36629 0,18306 33849,45504 52445,64101 79516,79516 54520,77011 199795,-68264 24469,-24469 37461,-27506 37461,-59106 0,-21158 -25125,-23309 -39959,-23309 -13337,0 -103681,105672 -129866,123207z"></path><path class="fil0" d="M119877 549265l0 123207c0,26472 31667,42345 54072,24123 17314,-14079 8397,-61769 11062,-105155 644,-10478 -3950,-11856 5375,-14922 30541,-10044 122625,22807 122625,-33913 0,-16458 -13510,-29969 -29969,-29969l-133196 0c-20441,0 -29969,15849 -29969,36629z"></path><path class="fil0" d="M66598 918885c0,10849 -759,39958 23309,39958l266393 0c38761,0 40782,-63267 -3329,-63267l-256404 0c-13002,0 -29969,12705 -29969,23309z"></path></g></g></svg>