<svg xmlns="http://www.w3.org/2000/svg" xml:space="preserve" width="40px" height="40px" version="1.1" style="shape-rendering:geometricPrecision; text-rendering:geometricPrecision; image-rendering:optimizeQuality; fill-rule:evenodd; clip-rule:evenodd" viewBox="0 0 273371 274270" xmlns:xlink="http://www.w3.org/1999/xlink"><defs><style>
    .fil0 {fill:#b25f68}
   </style></defs><g id="Слой_x0020_1"><metadata id="CorelCorpID_0Corel-Layer"></metadata><path class="fil0" d="M116641 170681l2612 4014c5600,10349 8394,23374 10013,35077 2353,17006 1779,31557 1303,49074l-2463 -12061c-90,-384 -247,-903 -353,-1316 -1989,-7754 -3772,-13038 -6882,-20314l-983 -2107c-489,-994 -264,-561 -536,-1064 -664,-1229 337,528 -587,-1014 -1161,-1936 762,1326 -645,-1042 -3562,-5997 -3252,-6043 -7703,-11785 -5404,-6971 -10137,-10870 -17204,-15439l9978 -9006c3102,-4446 3335,-3694 5714,-8735 1825,-3865 1140,-3294 7736,-4282zm12857 -333c2294,1536 4066,3607 7317,5674 1617,1028 2550,1563 4185,2277 11110,4855 17167,3493 27805,1155 -2413,20936 -6898,36276 -16577,53333 -762,1343 -1409,1916 -2319,3554 -2752,4955 -2229,3401 -4799,6983 -1199,1671 -1080,1884 -2959,3202 0,-17919 -673,-43235 -6340,-59938 -1786,-5263 -3620,-11705 -6313,-16240zm-43443 -37884c-3793,3037 -8124,6452 -15526,3660 -4796,-1810 -8771,-5903 -9954,-12030 -620,-3210 -295,-7020 801,-9505 436,-990 301,-579 894,-1740 4197,-8223 11355,-9828 20623,-6783 -303,5423 -1278,8321 -389,14375 766,5219 2271,8117 3551,12023zm60823 125736c2561,-3609 5367,-6223 7938,-9388 5953,-7327 12022,-20027 15363,-28033 50,-122 112,-259 163,-384l455 -1229c4842,-13639 7781,-25272 8939,-39785 176,-2197 66,-5006 613,-6256 54,-122 125,-257 189,-370l2915 -3106c73,-82 180,-200 252,-283l5143 -6489c17,-28 692,-1216 773,-1369 729,-1392 1202,-3043 2287,-4831 1506,-2482 4140,-1457 10584,-3408l16233 -9384c399,-387 665,-631 1096,-1051 3753,-3658 6175,-8028 8008,-12910l1605 -5311c963,-5352 772,-5214 772,-10512 0,-4534 -2622,-14185 -4909,-16609 1053,-2484 1064,-1909 2880,-3148l604 -432c87,-62 209,-161 295,-225l4659 -3452c7504,-5633 12105,-7321 22668,-8426 -3831,7681 -6537,7541 -12147,23296 -2921,8202 -5728,19231 -7748,28120 -3032,13338 -10066,46631 -13746,57526 -7021,20780 -19933,38567 -38157,50680 -9753,6482 -25199,15026 -37727,16769zm-39154 -182668c-619,-4518 319,-11066 1460,-14413 1745,-5118 2235,-4714 4432,-7828 2944,-4174 4051,-4558 8901,-7283 6727,-3782 18300,-1441 24646,1792l4173 2142c5364,2985 6457,1173 11840,-1766l2589 -1234c509,-223 2126,-940 3005,-1247 6334,-2212 12491,-2504 18789,-351l6173 3158c603,437 694,501 1251,952l1881 1582c7780,6765 9262,18931 7810,29043 -1114,7759 -1486,7605 3251,11827 17150,15287 15331,43505 -7821,51036 -3399,1106 -12180,1750 -13826,2705 -3111,1806 -6343,14295 -13686,18959 -7886,5011 -13992,8206 -25482,4302 -3782,-1284 -7331,-3685 -10011,-6702 -236,-266 -494,-582 -718,-838 -2424,-2779 -1179,-1670 -2508,-3958 -1405,-2422 -1229,-463 -3457,-4884 -2319,-4604 -2176,-7249 -8356,-7873 -5046,-510 -9222,-1440 -13168,-3496 -7266,-3784 -12588,-10518 -14772,-18468 -821,-2990 -1969,-10807 -520,-14524 2370,-6077 3993,-9895 8192,-14844l1240 -1397c75,-75 190,-184 267,-257l2662 -2208c1049,-878 158,1 1141,-1000 1121,-1142 2242,-2439 1780,-5662 -340,-2369 -820,-4791 -1158,-7265zm-21081 20072c-3177,-969 -6609,-2395 -11250,-2395 -16901,0 -31022,18349 -24356,37388 2438,6963 6686,10714 12176,14141l4260 2038c8109,2447 13331,1356 19999,-1822l3896 -2557c558,-478 469,-343 931,-740 6968,5478 9719,9522 21456,12342 1428,343 2884,425 4427,873 2107,613 1823,912 2744,3155 -5189,900 -6439,2272 -12491,3023 -7150,888 -5892,2477 -8481,7637 -3606,7185 -8120,12565 -15508,16070 -10254,4864 -24534,931 -31119,-7721 -6275,-8242 -4141,-7465 -7512,-13027 -2051,-3385 -7690,-2899 -11690,-3777 -20567,-4515 -27744,-27243 -21049,-40985 54,-111 128,-247 183,-356l3574 -5949c303,-452 642,-951 921,-1300 487,-607 511,-588 771,-869l2302 -2488c75,-76 188,-186 266,-260l563 -501c85,-73 208,-173 295,-246 8221,-6856 3421,-5143 3421,-19961 0,-2153 234,-4576 690,-6431 5,-20 263,-975 343,-1287 1233,-4874 3342,-8655 6795,-11953l817 -786c8162,-8181 19285,-7604 29334,-3304l2585 1185c6120,3022 6785,4930 12494,1394 343,-213 601,-372 996,-589 140,-77 551,-283 695,-358l710 -355c247,-126 729,-380 1059,-546 109,-55 246,-127 355,-181 4265,-2121 11286,-4506 15947,-3337 -2751,5576 -253,20062 -790,21335 -93,221 -5088,5744 -5730,6522 -2118,2567 -3189,4682 -5029,6978zm16070 -45785c-9148,-403 -17132,-183 -25733,4803 -4514,2616 -3072,1772 -7479,18 2885,-6840 -1584,-7960 -8,-20340 410,-3221 1362,-6456 2486,-8644 641,-1249 1021,-2597 1808,-3673 6642,-9080 16412,-13008 27911,-9692 8475,2444 12725,7091 16264,6233 2521,-611 7188,-4235 11641,-5533 5450,-1589 9123,-2479 15360,-1625l6273 1814c2795,1214 6387,3804 8390,5975 3893,4217 6037,8483 6834,16200 -2326,414 -5723,2178 -7809,3355 -6282,3545 -9151,-5856 -26426,-5753 -12999,78 -23435,6995 -29512,16862zm-80352 -32252c5703,540 16199,2977 21671,5429 152,68 576,260 725,323 10513,4440 11891,7314 14030,8286 -759,9422 -507,7161 466,17528 -3925,2053 -4110,343 -9078,242 -3708,-76 -7001,904 -10339,1515l-7850 -17443 -9625 -15880zm101840 256703l3723 0c1449,-611 4051,-811 5831,-1103 2138,-350 3605,-504 5538,-918 11470,-2459 19386,-5234 29574,-9527l9078 -4333c142,-75 534,-293 674,-369 101,-55 236,-133 338,-188 22850,-12336 42876,-33092 52105,-57720 636,-1698 1188,-2994 1763,-4649 663,-1905 1380,-3567 1801,-5044l7443 -31783c353,-1791 766,-3349 1198,-5190 3615,-15396 6022,-26978 10501,-42028 1546,-5195 4807,-13299 7516,-18067l11517 -13797c1980,-5184 -1495,-7906 -5942,-8525 -4109,-571 -8260,-704 -12485,-396 -16484,1204 -24790,9167 -35901,16631 -3466,-4495 -3474,-966 -2721,-8448 373,-3703 336,-7021 47,-11346 -1291,-19299 -18487,-36272 -38483,-34400 -906,-5235 -1794,-9107 -3943,-13256 -3480,-6718 -9942,-12901 -16910,-16239 -4565,-2187 -9480,-2143 -13004,-3575l-7031 0c-1834,896 -7761,1589 -10593,2777 -2025,849 -8179,4064 -9160,4047 -564,-10 -7086,-3346 -9132,-4137 -2642,-1022 -8453,-1856 -10153,-2687l-6495 0c-2036,934 -6624,1123 -9666,2544 -9432,4405 -13714,8349 -18928,17576 -13518,-9670 -32515,-13632 -49591,-14566 -8657,-474 -8960,6381 -6061,9789 8336,9796 21414,29162 23287,40901 -5762,2962 -10547,10827 -12860,16668 -3623,9148 -2452,15886 -1679,25765 -1328,1443 -2609,2560 -4015,3927 -14731,14325 -15555,42830 -175,56543 7575,6754 14857,11446 26101,12324 3163,7927 8824,15028 15315,19787 12103,8873 21883,4191 31403,9254 109,57 241,134 348,191 108,58 241,132 349,189l7102 4520c9236,7034 17545,19115 21982,32077 3280,9583 5423,18866 5997,29286 366,6627 2153,5929 4397,7495zm30064 -185993c19617,-4918 25732,28092 6188,32041 -6257,1265 -11182,-1334 -14560,-5243 -4203,-4864 -5031,-12270 -2172,-18352l4363 -5339c2505,-1986 2341,-2144 6181,-3107zm-2394 -10839c-21701,5138 -28723,34590 -9992,48886 2690,2053 5065,3422 8952,4464 19396,5197 37800,-13218 31285,-35382 -36,-125 -75,-271 -113,-396l-1752 -4142c-1838,-3433 -3980,-5670 -7083,-8530 -3849,-3548 -13033,-6856 -21297,-4900z"></path></g></svg>