<svg xmlns="http://www.w3.org/2000/svg" xml:space="preserve" width="40px" height="40px" version="1.1" style="shape-rendering:geometricPrecision; text-rendering:geometricPrecision; image-rendering:optimizeQuality; fill-rule:evenodd; clip-rule:evenodd" viewBox="0 0 201281 201943" xmlns:xlink="http://www.w3.org/1999/xlink"><defs><style>
    .fil0 {fill:#b25f68}
   </style></defs><g id="Слой_x0020_1"><metadata id="CorelCorpID_0Corel-Layer"></metadata><path class="fil0" d="M122092 180751l22411 9792c474,-863 4654,-22525 4654,-24428l6050 0c-1375,5162 -3062,15659 -4254,21928 -369,1943 -1280,5383 -1330,7386l-105179 0 -5585 -29314 88890 0 -5657 14636zm29392 -27258c1454,297 1478,552 2792,0 0,2006 491,4455 931,6107l-4654 0c204,-2138 931,-3581 931,-6107zm9308 -5293c959,-444 1103,-564 2327,-814 163,1715 4617,12749 5527,15115 1253,3259 4338,12636 5642,15014 -1678,776 -5437,2703 -7446,2850l-6050 -32165zm-21874 32165c-2843,-580 -4602,-2271 -7446,-2850l11170 -30129c1223,250 1367,370 2327,814l-6051 32165zm-9773 -20765l-91682 0c0,-2755 -1205,-8117 -1862,-10585 1177,-690 2516,-2443 3723,-2443l68413 0c3677,0 2483,6270 19257,1375l7301 -2163c947,-381 410,-135 900,-434l543 340c3,138 -224,185 -248,326l-4189 10585c-496,1377 -569,2999 -2156,2999zm41343 -14318l3740 1343c5712,1635 8911,3204 14953,3204 5941,0 12100,-5388 12100,-10586l0 -11400c0,-5447 -5609,-10586 -13962,-10586 -2728,0 -9684,2032 -11634,2850 -452,-1478 -2034,-2862 -3724,-3257 0,-4719 3724,-14540 3724,-18728 15474,-302 20366,-19494 5593,-25252 -5598,-2181 -12526,-398 -19555,-398 776,-2917 5584,-8913 5584,-13843 7407,-1510 11077,-2881 15717,-7015 9279,-8264 7088,-19321 7088,-32071l-7447 0 0 -9771c-6166,0 -10304,-113 -15823,2442 -8967,-5253 -9887,-5700 -21408,-5700l0 13029 -7446 0c0,15445 -2870,27855 13106,36170 1892,984 5906,2509 8767,2509 -675,2536 -2127,5775 -3407,8012 -1095,1913 -3551,5625 -4039,7459 -7329,0 -32016,5351 -39295,7152 -3698,916 -9386,2184 -12364,3434l0 -9365 12566 0c8585,0 17219,-7553 17219,-15064l0 -4478 -20012 0c-4231,0 -7241,1774 -9773,3257 0,-6925 -652,-6466 1768,-7004 4656,-1034 7827,-2127 11594,-4922 11401,-8458 8977,-19972 8977,-33674l-7446 0 0 -9772c-6167,0 -10304,-112 -15824,2443 -8966,-5253 -9886,-5700 -21408,-5700l0 13029 -7446 0c0,12539 -2152,23662 6855,31867 2043,1862 3912,3126 6541,4456 3726,1886 7498,2156 8943,2762l0 13029c-2532,-1483 -5542,-3257 -9773,-3257l-20012 0 0 4478c0,7511 8634,15065 17219,15065l12566 0 0 5293c-7225,1472 -31178,11847 -39114,15860 -1050,531 -1881,809 -3042,1410 -1824,944 -3741,2264 -5780,2680 -6226,-8135 -14892,-18791 -14892,-28907 9547,0 21873,-10189 21873,-21172l0 -17507 -7446 0 0 -9772c-6167,0 -10304,-112 -15823,2443 -8967,-5253 -9887,-5700 -21409,-5700l0 13029 -7446 0c0,14171 -2362,23966 8018,32886 2418,2077 4626,3136 7957,4438 5952,2327 6829,-151 6829,5426 -4418,-901 -17449,-407 -22804,-407 0,7235 589,13255 9616,17644 5686,2765 14446,1899 22496,1899 937,3068 5735,6838 6516,9771 -3719,1721 -16883,10347 -19667,12517l-9315 6914c-12549,10443 -3505,26169 9435,26169 8187,0 6098,-1361 9774,-1628 0,2536 8043,44229 8842,47228l118210 0c469,-4930 3258,-13999 3258,-18321l465 0c0,1602 831,5891 1396,6921 2388,-486 8687,-3596 11325,-4750 2012,-880 3629,-1517 5572,-2454l5442 -2567c-1393,-3677 -13544,-34480 -13108,-35490zm3335 -6039c1355,-1771 2809,-2966 3868,-5166 1442,-2994 1251,-3874 1251,-7862 3273,-667 14893,-6477 14893,4071 0,3986 761,9513 -2039,11652 -3291,2515 -7255,498 -11748,-813 -2045,-596 -4553,-1180 -6225,-1882zm-61898 -2443c0,-5724 -1237,-12129 5295,-12899 2049,-242 7255,1836 9598,2314 0,3815 -233,4639 1117,7573 1111,2415 2545,3551 4003,5455 -2966,1245 -8271,2476 -11805,3536 -4563,1369 -8208,-921 -8208,-5979zm22339 -8142c0,-6663 8481,-10239 14649,-6708 1052,603 2856,2607 3502,3450 959,-562 8535,-8811 16172,-2748 3167,2516 4209,7524 16,11210l-15723 11488 -15255 -11082c-1591,-1353 -3361,-3461 -3361,-5610zm30251 -14658c-11371,0 -9199,2036 -11635,2036 -2424,0 -819,-2036 -10704,-2036 -4510,0 -11227,3246 -12100,6107 -3608,-1514 -9003,-2850 -13497,-2850 -5941,0 -12100,5388 -12100,10586l0 12214 -56778 0c2398,-2863 21086,-13318 24573,-15145 17827,-9337 39246,-16726 59570,-21172 5344,-1170 11442,-2322 17308,-3180l18621 -2031c-53,2062 -1078,5341 -1591,7565 -341,1482 -516,2293 -799,3780 -240,1267 -741,2791 -868,4126zm-155907 -26057c17031,0 15464,-81 19081,6514 -10354,0 -15367,756 -19081,-6514zm12100 61886c-8009,0 -12994,-8646 -5762,-14406l27171 -18573c2951,-1722 5689,-3271 8816,-4908l19262 -9206c25187,-11017 50344,-17971 78292,-21893 8147,-1143 18261,-2264 27198,-2264 1936,0 3776,922 4794,1912 4363,4240 1574,10273 -4788,10715 -25818,1792 -49512,5124 -73408,13544 -3622,1276 -7081,2357 -10530,3817 -16889,7153 -31419,13637 -46060,24034 -6775,4811 -9759,6961 -15793,12240 -2125,1860 -5130,4988 -9192,4988zm51194 -81429c6170,0 18400,-1283 20477,6514 -4450,0 -9650,383 -13323,-559 -1875,-481 -3247,-1175 -4490,-2179 -1901,-1536 -1984,-2444 -2664,-3776zm29785 0c2076,-7797 14307,-6514 20477,-6514 -756,2841 -3839,5105 -7154,5955 -3673,941 -8873,559 -13323,559zm-71671 2850c0,-10016 -1014,-22001 14893,-25243 0,10017 1015,22001 -14893,25243zm-22339 -25243c5908,1204 9917,4102 12561,8148 2865,4384 2332,10305 2332,17095 -5907,-1204 -9916,-4102 -12560,-8147 -2865,-4384 -2333,-10306 -2333,-17096zm19082 3665c-1671,-391 -2793,-2374 -2793,-2443 0,-4236 6891,-9647 13497,-10993l0 4886c-3378,1563 -9735,5371 -10704,8550zm141014 2035c0,-10016 -1015,-22000 14892,-25243 0,10017 1015,22001 -14892,25243zm-22339 -25243c15907,3243 14892,15227 14892,25243 -15907,-3242 -14892,-15226 -14892,-25243zm-127983 15879c-926,-542 -1290,-741 -2327,-1221l0 -8143c1082,454 2645,705 3794,1158 1296,511 2414,1118 3652,1692 -816,1066 -1618,1693 -2613,3007 -984,1300 -1602,2325 -2506,3507zm83305 2850c0,-6790 -532,-12712 2332,-17095 2644,-4046 6654,-6944 12561,-8148 0,10017 1014,22001 -14893,25243zm-22339 -25243c5907,1204 9916,4102 12561,8148 2864,4383 2332,10305 2332,17095 -5907,-1204 -9916,-4102 -12560,-8148 -2865,-4383 -2333,-10305 -2333,-17095zm86098 10179c-1670,-390 -2792,-2374 -2792,-2443 0,-4236 6890,-9647 13496,-10993l0 4886c-2080,963 -4402,2194 -6164,3564 -1395,1085 -4056,3399 -4540,4986zm-9308 -7329c-925,-542 -1289,-741 -2327,-1221l0 -8143c2418,1015 1984,321 7446,2850l-5119 6514zm-57709 814c-1670,-390 -2792,-2373 -2792,-2443 0,-4236 6891,-9646 13496,-10992l0 4885c-2080,963 -4401,2195 -6164,3565 -1395,1085 -4055,3398 -4540,4985zm-9307 -7328c-926,-543 -1290,-742 -2328,-1222l0 -8142c2419,1014 1984,321 7447,2850l-5119 6514z"></path></g></svg>