<?xml version="1.0" encoding="utf-8"?>
<!-- Generator: Adobe Illustrator 24.1.1, SVG Export Plug-In . SVG Version: 6.00 Build 0)  -->
<svg version="1.1" id="Слой_1" xmlns="http://www.w3.org/2000/svg" xmlns:xlink="http://www.w3.org/1999/xlink" x="0px" y="0px"
	 viewBox="0 0 64 64" style="enable-background:new 0 0 64 64;" xml:space="preserve">
<style type="text/css">
	.st0{fill:none;stroke:#D35157;stroke-width:2;}
	.st1{fill:none;stroke:#5C5C5C;stroke-width:2;}
	.st2{fill:#5C5C5C;}
	.st3{fill:#D35157;}
</style>
<path class="st0" d="M24.8,20.8c1.8-4,6.2-6.8,6.2-6.8s4.4,2.8,6.2,6.8"/>
<path class="st1" d="M33,27.9c0.1-3.1,1.1-5.3,2.9-6.7c1.5-1.2,3.7-1.9,6.6-2.1c0,0.2-0.1,0.4-0.1,0.6c-0.3,1.5-0.7,3.9-0.6,7.6
	c0.1,3.3-1.6,5.3-3.5,6.7c-2,1.4-4.3,1.9-5.2,2c-0.6,0-1.1,0-1.5,0c0.1-0.2,0.2-0.5,0.3-0.8C32.4,33.7,33,31.3,33,27.9z"/>
<path class="st1" d="M28.8,27.9c-0.1-3.1-1.2-5.3-3.1-6.7c-1.7-1.2-4.1-2-7.2-2.2c0.1,0.2,0.1,0.3,0.1,0.5c0.4,1.5,0.7,3.9,0.6,7.6
	c-0.1,3.2,1.7,5.3,3.8,6.7c2.1,1.4,4.6,1.9,5.6,2c0.6,0.1,1.2,0.1,1.6,0.1c-0.1-0.2-0.2-0.5-0.3-0.8C29.5,33.7,28.9,31.3,28.8,27.9z
	"/>
<rect x="30" y="36" class="st2" width="2" height="25"/>
<path class="st1" d="M40.9,46.2l0.6-3.1c-2.3,0.3-4.4,1.1-6.1,2.2c-2,1.3-3.3,3-3.6,4.7l-0.6,3.1c2.3-0.3,4.4-1.1,6.1-2.2
	C39.3,49.5,40.6,47.8,40.9,46.2z"/>
<path class="st1" d="M20.6,42.5L20,39.2c2.4,0.3,4.7,1.2,6.5,2.4c2.1,1.4,3.5,3.2,3.9,5l0.6,3.3c-2.4-0.3-4.7-1.2-6.5-2.4
	C22.3,46.1,20.9,44.3,20.6,42.5z"/>
<path class="st3" d="M31,3L31,3c0.6,0,1,0.4,1,1v3c0,0.6-0.4,1-1,1l0,0c-0.6,0-1-0.4-1-1V4C30,3.4,30.4,3,31,3z"/>
<path class="st3" d="M39.2,7.7L39.2,7.7c0.4,0.4,0.4,1,0,1.4l-2.1,2.1c-0.4,0.4-1,0.4-1.4,0l0,0c-0.4-0.4-0.4-1,0-1.4l2.1-2.1
	C38.2,7.3,38.9,7.3,39.2,7.7z"/>
<path class="st3" d="M22.7,7.7L22.7,7.7c-0.4,0.4-0.4,1,0,1.4l2.1,2.1c0.4,0.4,1,0.4,1.4,0l0,0c0.4-0.4,0.4-1,0-1.4l-2.1-2.1
	C23.7,7.3,23.1,7.3,22.7,7.7z"/>
<path class="st3" d="M31,9L31,9c0.6,0,1,0.4,1,1l0,0c0,0.6-0.4,1-1,1l0,0c-0.6,0-1-0.4-1-1l0,0C30,9.4,30.4,9,31,9z"/>
</svg>
