<?xml version="1.0" encoding="utf-8"?>
<!-- Generator: Adobe Illustrator 24.1.1, SVG Export Plug-In . SVG Version: 6.00 Build 0)  -->
<svg version="1.1" id="Слой_1" xmlns="http://www.w3.org/2000/svg" xmlns:xlink="http://www.w3.org/1999/xlink" x="0px" y="0px"
	 viewBox="0 0 64 64" style="enable-background:new 0 0 64 64;" xml:space="preserve">
<style type="text/css">
	.st0{fill:none;stroke:#5C5C5C;stroke-width:2;}
	.st1{fill:none;stroke:#D35157;stroke-width:2;}
</style>
<path class="st0" d="M20,38l-1.4,8.1c-0.3,1.7,1.5,2.9,3,2.1l1.6-1"/>
<path class="st0" d="M23,41.5v6.2v6.8c0,1.7,2.1,2.6,3.3,1.5l5-4.5c0.4-0.3,1-0.3,1.3,0l5,4.5c1.3,1.2,3.3,0.3,3.3-1.5v-6.8V42"/>
<path class="st0" d="M35.5,43.2L35,44.1L35.5,43.2c-1.9-0.8-4-0.8-5.9,0l0.4,0.9l-0.4-0.9h-0.1c-2.5,1.1-5.5,0.1-6.6-2.4
	c-0.9-1.9-2.5-3.2-4.5-3.8h-0.2c-2.6-0.7-4.2-3.4-3.5-6c0.5-2,0.2-4.1-1-5.8c-1.6-2.2-1-5.3,1.2-6.9c1.7-1.2,2.8-3,3-5.1
	c0.3-2.7,2.6-4.7,5.3-4.5h0.2c2.1,0.2,4.1-0.6,5.6-2c2-1.9,5.2-1.9,7.2,0c1.5,1.4,3.5,2.2,5.6,2H42c2.7-0.2,5.1,1.8,5.3,4.5
	c0.2,2,1.3,3.9,3,5.1c2.2,1.6,2.8,4.7,1.2,6.9c-1.2,1.7-1.6,3.8-1,5.8c0.7,2.6-0.8,5.3-3.5,6h-0.2l0.3,1l-0.3-1
	c-2,0.5-3.6,1.9-4.5,3.8c-1.2,2.5-4.1,3.6-6.6,2.4H35.5z"/>
<circle class="st1" cx="32.5" cy="25.5" r="12.5"/>
<path class="st1" d="M27.2,25.8l3.8,4.6c0.5,0.5,1.3,0.5,1.6-0.2l5.4-10"/>
</svg>
