<svg width="30" height="9" viewBox="0 0 30 9" xmlns="http://www.w3.org/2000/svg">
<path d="M0 4H29.5C29.7761 4 30 4.22386 30 4.5V4.5C30 4.77614 29.7761 5 29.5 5H0V4Z"/>
<path d="M22.536 8.50014C22.3979 8.261 22.4798 7.9552 22.719 7.81713L29.214 4.06692L29.7141 4.93293L23.219 8.68313C22.9798 8.82121 22.674 8.73929 22.536 8.50014V8.50014Z"/>
<path d="M22.25 0.433013C22.3881 0.193866 22.6939 0.111929 22.933 0.25L29.4282 4L28.9282 4.86603L22.433 1.11603C22.1939 0.977954 22.1119 0.672159 22.25 0.433013V0.433013Z" />
</svg>
