<svg width="65" height="65" viewBox="0 0 65 65" fill="none" xmlns="http://www.w3.org/2000/svg">
<path d="M14.3184 20.07C14.3484 19.55 14.3884 18.98 14.4184 18.41C14.4584 17.77 14.7384 17.22 15.0984 16.7C16.1584 15.19 17.5484 14.04 19.1084 13.09C19.8784 12.62 20.7584 12.54 21.5784 12.89C22.4184 13.24 23.2284 13.69 23.9884 14.2C24.3084 14.42 24.4984 14.88 24.6684 15.26C25.3684 16.91 25.7184 18.66 26.0684 20.42C26.1984 21.1 26.2784 21.8 26.4084 22.49C26.5284 23.11 26.3984 23.66 26.0284 24.14C25.5984 24.69 25.1284 25.21 24.6284 25.7C24.0884 26.24 23.5184 26.75 22.9384 27.24C22.7084 27.44 22.6484 27.59 22.7584 27.89C23.5084 29.88 24.5884 31.68 25.8184 33.4C28.1584 36.67 31.0884 39.3 34.4784 41.43C35.3784 42 35.3884 41.97 36.1884 41.29C36.9684 40.63 37.7584 39.98 38.5684 39.35C39.3484 38.74 40.2084 38.57 41.1984 38.87C43.2884 39.51 45.3684 40.16 47.3484 41.11C48.2584 41.55 48.9484 42.14 49.3184 43.13C49.6384 44 50.0284 44.85 49.8584 45.79C49.7784 46.25 49.6284 46.74 49.3484 47.11C48.2484 48.57 46.9284 49.8 45.3084 50.69C44.6484 51.05 43.9484 51.23 43.1884 51.22C40.1384 51.16 37.2084 50.47 34.3984 49.32C26.8184 46.21 21.3484 40.83 17.6984 33.56C15.8884 29.97 14.8184 26.14 14.4384 22.14C14.3784 21.46 14.3584 20.79 14.3184 20.07Z" stroke="#292929" stroke-width="2" stroke-miterlimit="10"/>
</svg>
