<svg width="20" height="20" viewBox="0 0 20 20" xmlns="http://www.w3.org/2000/svg">
<path d="M8.93747 17.9143C7.46785 17.9136 6.02109 17.5496 4.72535 16.8545C3.42961 16.1594 2.3249 15.1547 1.50909 13.9294C0.693285 12.7041 0.191563 11.296 0.0483757 9.82985C-0.0948113 8.36372 0.124958 6.88481 0.688213 5.52417C1.25147 4.16352 2.14082 2.96313 3.27748 2.02935C4.41413 1.09557 5.763 0.457219 7.20459 0.170859C8.64617 -0.1155 10.136 -0.0410312 11.542 0.387669C12.948 0.81637 14.2268 1.58607 15.2652 2.62857C16.5136 3.88207 17.3633 5.47848 17.7068 7.21598C18.0503 8.95349 17.8722 10.7541 17.1949 12.3901C16.5177 14.0261 15.3717 15.4242 13.9019 16.4074C12.4321 17.3907 10.7045 17.9151 8.93747 17.9143ZM8.93747 1.81428C7.2893 1.81393 5.69197 2.3863 4.41751 3.43391C3.14306 4.48152 2.2703 5.93958 1.94787 7.55978C1.62544 9.17998 1.87328 10.8621 2.64918 12.3197C3.42507 13.7773 4.68105 14.9202 6.2032 15.5538C7.72535 16.1874 9.41954 16.2725 10.9972 15.7946C12.575 15.3167 13.9386 14.3053 14.856 12.9328C15.7733 11.5602 16.1876 9.91132 16.0284 8.26693C15.8691 6.62254 15.1461 5.08434 13.9825 3.91428C13.3207 3.24882 12.5344 2.72079 11.6687 2.36043C10.803 2.00008 9.87486 1.81448 8.93747 1.81428Z" fill="#4D6469"/>
<path d="M19.0437 20C18.9241 19.9998 18.8058 19.9757 18.6957 19.9291C18.5856 19.8825 18.4859 19.8143 18.4024 19.7286L13.9844 15.3C13.8849 15.2194 13.8033 15.1188 13.7451 15.0046C13.6869 14.8904 13.6533 14.7652 13.6465 14.6371C13.6398 14.5091 13.6599 14.381 13.7057 14.2613C13.7515 14.1416 13.8219 14.0328 13.9124 13.9421C14.0029 13.8515 14.1114 13.7809 14.2308 13.735C14.3503 13.689 14.478 13.6688 14.6058 13.6756C14.7335 13.6824 14.8584 13.7161 14.9723 13.7745C15.0863 13.8328 15.1867 13.9145 15.267 14.0143L19.685 18.4429C19.8111 18.5707 19.8968 18.7329 19.9314 18.9093C19.966 19.0857 19.948 19.2685 19.8795 19.4346C19.8111 19.6008 19.6953 19.7431 19.5466 19.8436C19.398 19.9442 19.223 19.9986 19.0437 20Z" fill="#4D6469"/>
</svg>
