<svg width="20" height="20" viewBox="0 0 20 20" fill="none" xmlns="http://www.w3.org/2000/svg">
<path d="M10 20C4.5 20 0 15.5 0 10C0 4.5 4.5 0 10 0C15.5 0 20 4.5 20 10C20 15.5 15.5 20 10 20ZM10 1C5.05 1 1 5.05 1 10C1 14.95 5.05 19 10 19C14.95 19 19 14.95 19 10C19 5.05 14.95 1 10 1Z" fill="white"/>
<path fill-rule="evenodd" clip-rule="evenodd" d="M8.34995 12.0499L13 7.84989C13.2 7.64989 12.95 7.59989 12.7 7.74989L6.99995 11.3499L4.54995 10.5999C3.99995 10.4499 3.99995 10.0499 4.64995 9.79989L14.3 6.09989C14.75 5.89989 15.15 6.19989 15 6.89989L13.35 14.6499C13.25 15.1999 12.9 15.3499 12.45 15.0999L9.94995 13.2499L8.74995 14.3999C8.59995 14.5499 8.39995 14.5499 8.39995 14.3999L8.34995 12.0499Z" fill="white"/>
</svg>
