<svg width="65" height="65" viewBox="0 0 65 65" fill="none" xmlns="http://www.w3.org/2000/svg">
<path d="M29.0793 12.41C20.8493 13.74 14.3093 20.53 13.2093 28.8C12.5593 33.74 13.7893 38.35 16.2793 42.07L16.2693 42.08L12.9793 48.87C12.3993 50.06 13.6393 51.31 14.8393 50.75L21.7393 47.5H21.7493C25.4593 49.94 30.0593 51.14 34.9593 50.47C43.1993 49.36 49.9593 42.83 51.2893 34.62C53.4193 21.49 42.2193 10.29 29.0793 12.41Z" stroke="#292929" stroke-width="2" stroke-miterlimit="10"/>
<path d="M22.6699 25.6401C22.6899 25.3601 22.7099 25.0601 22.7199 24.7601C22.7399 24.4201 22.8899 24.1301 23.0799 23.8601C23.6399 23.0601 24.3799 22.4501 25.2099 21.9401C25.6199 21.6901 26.0799 21.6501 26.5199 21.8301C26.9699 22.0201 27.3999 22.2501 27.7999 22.5301C27.9699 22.6401 28.0699 22.8901 28.1599 23.0901C28.5299 23.9701 28.7199 24.9001 28.8999 25.8201C28.9699 26.1801 29.0099 26.5501 29.0799 26.9201C29.1399 27.2501 29.0799 27.5401 28.8799 27.7901C28.6499 28.0801 28.3999 28.3601 28.1399 28.6201C27.8499 28.9101 27.5499 29.1701 27.2399 29.4401C27.1199 29.5401 27.0899 29.6301 27.1499 29.7901C27.5499 30.8401 28.1199 31.8001 28.7799 32.7101C30.0199 34.4401 31.5699 35.8401 33.3699 36.9701C33.8499 37.2701 33.8499 37.2501 34.2799 36.8901C34.6899 36.5401 35.1099 36.1901 35.5399 35.8601C35.9599 35.5401 36.4099 35.4501 36.9299 35.6101C38.0399 35.9501 39.1399 36.3001 40.1899 36.8001C40.6699 37.0301 41.0399 37.3501 41.2299 37.8701C41.3999 38.3301 41.6099 38.7801 41.5199 39.2801C41.4799 39.5201 41.3999 39.7901 41.2499 39.9801C40.6699 40.7501 39.9699 41.4101 39.1099 41.8801C38.7599 42.0701 38.3899 42.1701 37.9899 42.1601C36.3699 42.1301 34.8199 41.7601 33.3299 41.1501C29.3099 39.5001 26.4099 36.6501 24.4699 32.7901C23.5099 30.8801 22.9399 28.8601 22.7399 26.7301C22.6999 26.3801 22.6899 26.0301 22.6699 25.6401Z" stroke="#292929" stroke-width="2" stroke-miterlimit="10"/>
</svg>
