<?xml version="1.0" encoding="utf-8"?>
<!-- Generator: Adobe Illustrator 24.1.1, SVG Export Plug-In . SVG Version: 6.00 Build 0)  -->
<svg version="1.1" id="Слой_1" xmlns="http://www.w3.org/2000/svg" xmlns:xlink="http://www.w3.org/1999/xlink" x="0px" y="0px"
	 viewBox="0 0 64 64" style="enable-background:new 0 0 64 64;" xml:space="preserve">
<style type="text/css">
	.st0{fill:none;stroke:#5C5C5C;stroke-width:2;}
	.st1{fill:#FFFFFF;stroke:#5C5C5C;stroke-width:2;}
	.st2{fill:#5C5C5C;}
	.st3{fill:#5C5C5C;stroke:#5C5C5C;}
	.st4{fill:none;stroke:#D35157;stroke-width:2;}
	.st5{fill:#D35157;}
</style>
<path class="st0" d="M28.6,18H44c1.7,0,3,1.3,3,3v27H21c-1.7,0-3-1.3-3-3v-9.6"/>
<path class="st0" d="M47,29c0-1.1,0.9-2,2-2h3.1c0.5,0,1,0.2,1.4,0.6l7.9,7.9c0.4,0.4,0.6,0.9,0.6,1.4V46c0,1.1-0.9,2-2,2H47V29z"/>
<circle class="st1" cx="26.5" cy="48.5" r="3.5"/>
<circle class="st1" cx="54.5" cy="48.5" r="3.5"/>
<path class="st2" d="M4,38h8c0.6,0,1,0.4,1,1l0,0c0,0.6-0.4,1-1,1H4c-0.6,0-1-0.4-1-1l0,0C3,38.4,3.4,38,4,38z"/>
<path class="st2" d="M5,46h6c0.6,0,1,0.4,1,1l0,0c0,0.6-0.4,1-1,1H5c-0.6,0-1-0.4-1-1l0,0C4,46.4,4.4,46,5,46z"/>
<path class="st3" d="M7.5,43c0-0.3,0.2-0.5,0.5-0.5h7c0.3,0,0.5,0.2,0.5,0.5s-0.2,0.5-0.5,0.5H8C7.7,43.5,7.5,43.3,7.5,43z"/>
<path class="st2" d="M2,42h2c0.6,0,1,0.4,1,1l0,0c0,0.6-0.4,1-1,1H2c-0.6,0-1-0.4-1-1l0,0C1,42.4,1.4,42,2,42z"/>
<circle class="st4" cx="18" cy="24" r="12"/>
<rect x="16.8" y="15.9" class="st5" width="1.2" height="8.5"/>
<path class="st5" d="M16.8,25.6v-1.2h7.3v1.2H16.8z"/>
</svg>
