<svg width="21" height="20" viewBox="0 0 21 20"  xmlns="http://www.w3.org/2000/svg">
<path fill-rule="evenodd" clip-rule="evenodd" d="M4.08463 0.363636C4.27293 0.134718 4.56844 0 4.88228 0H16.847C17.1609 0 17.4563 0.134718 17.6446 0.363636L20.6358 4C20.7652 4.15736 20.8352 4.34875 20.8352 4.54545V17.2727C20.8352 17.9961 20.5201 18.6897 19.9591 19.2012C19.3982 19.7126 18.6374 20 17.844 20H3.88522C3.09191 20 2.33109 19.7126 1.77014 19.2012C1.20918 18.6897 0.894043 17.9961 0.894043 17.2727V4.54545C0.894043 4.34875 0.964017 4.15736 1.09345 4L4.08463 0.363636ZM5.38081 1.81818L2.88816 4.84848V17.2727C2.88816 17.5138 2.99321 17.7451 3.18019 17.9155C3.36718 18.086 3.62078 18.1818 3.88522 18.1818H17.844C18.1085 18.1818 18.3621 18.086 18.5491 17.9155C18.736 17.7451 18.8411 17.5138 18.8411 17.2727V4.84848L16.3485 1.81818H5.38081Z"/>
<path fill-rule="evenodd" clip-rule="evenodd" d="M0.894043 4.54546C0.894043 4.04339 1.34045 3.63637 1.8911 3.63637H19.8382C20.3888 3.63637 20.8352 4.04339 20.8352 4.54546C20.8352 5.04753 20.3888 5.45455 19.8382 5.45455H1.8911C1.34045 5.45455 0.894043 5.04753 0.894043 4.54546Z"/>
<path fill-rule="evenodd" clip-rule="evenodd" d="M6.87645 7.27274C7.42711 7.27274 7.87351 7.67974 7.87351 8.18183C7.87351 8.9051 8.18865 9.59883 8.74961 10.1103C9.31057 10.6217 10.0714 10.9091 10.8647 10.9091C11.6579 10.9091 12.4188 10.6217 12.9797 10.1103C13.5407 9.59883 13.8559 8.9051 13.8559 8.18183C13.8559 7.67974 14.3022 7.27274 14.8529 7.27274C15.4036 7.27274 15.85 7.67974 15.85 8.18183C15.85 9.38737 15.3247 10.5436 14.3898 11.3959C13.4549 12.2484 12.1869 12.7273 10.8647 12.7273C9.54249 12.7273 8.27448 12.2484 7.33956 11.3959C6.40463 10.5436 5.87939 9.38737 5.87939 8.18183C5.87939 7.67974 6.3258 7.27274 6.87645 7.27274Z"/>
</svg>
