<svg xmlns="http://www.w3.org/2000/svg" xml:space="preserve" width="41px" height="40px" version="1.1" style="shape-rendering:geometricPrecision; text-rendering:geometricPrecision; image-rendering:optimizeQuality; fill-rule:evenodd; clip-rule:evenodd" viewBox="0 0 297792 294283" xmlns:xlink="http://www.w3.org/1999/xlink"><defs><style>
    .fil0 {fill:#b25f68}
   </style></defs><g id="Слой_x0020_1"><metadata id="CorelCorpID_0Corel-Layer"></metadata><path class="fil0" d="M41323 215085l-687 -741c-980,-1058 -2141,-1905 -3084,-3018 -3869,-4571 -6210,-11193 -6210,-17171 0,-5894 2387,-12873 6322,-17299 929,-1045 2041,-1881 2981,-2899l675 -731 -774 -626c-2463,-1995 -4669,-4995 -6137,-7794 -4196,-7995 -3931,-16945 76,-24953 1279,-2556 3770,-5910 6013,-7679l796 -628 -693 -742c-980,-1048 -2127,-1868 -3026,-3017 -8847,-11315 -8137,-25105 1258,-35836 681,-777 1504,-1306 2237,-2005 2964,-2828 7561,-4793 11512,-5741 3549,-852 7384,-820 11018,-818 2544,2 5088,73 7632,102l1576 18 -742 -1389c-799,-1497 -1549,-3014 -2089,-4627 -2268,-6783 -1900,-14364 1383,-20756 223,-434 494,-827 750,-1239l886 -1428 -1680 3c-7633,11 -15266,80 -22899,90 -5367,7 -10734,6 -16102,-47 -1937,-19 -3875,-44 -5811,-98 -1053,-29 -2098,-22 -3144,-168 -6954,-968 -13824,-4915 -17934,-10642 -3505,-4883 -5426,-10249 -5426,-16288 0,-5303 1900,-11027 4959,-15349 703,-994 1455,-1952 2301,-2829 820,-852 1707,-1633 2588,-2421 4469,-3991 11104,-6319 17070,-6319l142679 0c3403,0 7755,909 10798,2441 7939,3995 12614,9376 15077,17954 1393,4848 1106,9881 -426,14658 -529,1650 -1200,3254 -1981,4800 -106,211 -221,418 -337,625l-781 1390 1594 0c11900,0 23800,0 35699,0 7659,0 14913,-767 21789,3407 4064,2466 7007,5272 9629,9240 2369,3586 3697,7708 3993,11988 665,9607 -3911,19486 -11971,24857 -2323,1549 -4829,2722 -7525,3456 -6413,1748 -13674,1226 -20270,1136l-1561 -21 722 1384c316,606 1168,2370 1731,2723 665,417 1831,562 2602,822l7956 2860 21 9c2500,994 4934,2151 7344,3344 622,308 1217,663 1817,1012 1808,1050 3630,2079 5410,3178 2078,1283 4085,2672 6102,4047 4215,2871 8052,6384 11652,9984l29 29 3808 4047c2172,2308 4226,4739 6047,7336 3931,5604 7512,11458 10370,17687 2849,6208 4935,12715 6511,19355 1469,6188 2346,12639 2346,19004 0,6480 -187,12986 -1306,19383 -988,5647 -2670,11138 -4465,16572 -1429,4328 -3361,8504 -5461,12543l-26 47 -2239 3925c-3704,6153 -7916,12042 -12797,17321l-32 35 -9281 8755 -37 30c-6226,5105 -12935,9515 -20162,13074 -12336,6075 -27514,9846 -41282,9846l-3742 0c-16769,0 -34682,-5440 -49005,-14081 -1439,-868 -2838,-1798 -4237,-2728l-47 -31 -11733 -9293c-1338,-1034 -2441,-2280 -3631,-3470 -405,-406 -1194,-1385 -1690,-1621 -548,-261 -2669,-118 -3334,-118l-62686 0c-8131,0 -14920,-1565 -20821,-7501 -2510,-2525 -4370,-5016 -5918,-8232 -1636,-3397 -2518,-7654 -2518,-11419 0,-7027 3602,-15681 9187,-20078l794 -626zm-25608 -197319l-1991 3112 -25 53c-1124,2366 -1263,4345 -1263,6922 0,8273 7546,14015 15418,14015l140338 0c5985,0 11455,-2633 14203,-8119 2108,-4208 2132,-8936 52,-13159 -1833,-3722 -5227,-6779 -9295,-7798 -932,-234 -1892,-357 -2854,-357l-144316 0c-2603,0 -5489,1250 -7571,2758 -356,257 -683,561 -1031,830 -291,225 -612,441 -862,713 -279,304 -515,668 -774,993l-29 37zm222882 65736c1207,0 2410,-185 3565,-533 3917,-1184 7152,-4185 8870,-7870 1963,-4210 1792,-8845 -265,-12986 -2617,-5268 -7776,-8044 -13574,-8044l-141509 0c-5511,0 -10792,3180 -13268,8119 -1511,3015 -1448,4963 -1448,8235 0,3745 2626,7643 5446,9935 293,239 581,503 892,717 2111,1455 5110,2427 7676,2427l143615 0zm-109921 41868l229 -146c853,-542 1634,-1324 2362,-2023 698,-669 1376,-1358 2069,-2032 2147,-2086 4508,-3944 6939,-5686 2763,-1982 5637,-3809 8578,-5514 2899,-1682 5867,-3245 8903,-4666 2680,-1255 5412,-2408 8222,-3340 5081,-1688 10227,-3220 15502,-4175l839 -152 -153 -1699 -124607 0c-5235,0 -10150,3683 -12409,8274 -1268,2576 -1372,4561 -1372,7378 0,7575 7402,13781 14716,13781l70182 0zm-10314 12201l-1646 0c-14262,0 -28523,0 -42784,0 -3341,0 -6681,-151 -10022,-122 -3358,29 -7978,98 -11107,1337 -5188,2054 -9025,7414 -9025,13033l0 1404c0,6900 6581,13780 13547,13780l46743 0 161 -733c256,-1168 647,-2298 1050,-3422 499,-1393 1046,-2768 1599,-4141l19 -45 3375 -7584 8090 -13507zm-17279 41868l-42823 0c-3804,0 -7373,1496 -10053,4193 -1218,1225 -2313,2503 -3050,4081 -2696,5769 -1421,12467 3049,16965 2368,2382 6201,4193 9587,4193l43039 0 -106 -1028c-156,-1516 -481,-3006 -601,-4530l-3 -37 -248 -9828 802 -10911 5 -42c92,-675 216,-1346 289,-2023l113 -1033zm140645 91208l9822 -6526 25 -19c1997,-1552 3797,-3343 5774,-4922 3540,-2826 6626,-6464 9407,-10023 2738,-3506 5327,-7180 7480,-11077 4032,-7300 7339,-15157 9079,-23336 1355,-6371 2276,-12895 2276,-19419 0,-16553 -5674,-36117 -15586,-49471 -3064,-4128 -6254,-8166 -9895,-11806 -9301,-9302 -20995,-16695 -33492,-20845 -2749,-913 -5529,-1756 -8365,-2359 -6361,-1353 -12907,-2282 -19420,-2282 -1796,0 -3588,209 -5385,231 -3911,45 -7851,717 -11668,1531 -3683,786 -7330,1755 -10905,2939 -2612,866 -5135,1983 -7661,3070 -3604,1553 -7044,3518 -10380,5578 -1831,1130 -3632,2311 -5380,3566 -1493,1071 -2960,2192 -4322,3460l-2816 2535 -30 24c-2498,2006 -4714,4443 -6800,6867 -2061,2394 -4041,4874 -5780,7514 -369,560 -796,1082 -1155,1646 -366,574 -713,1159 -1092,1724 -2215,3294 -3884,6918 -5608,10482 -2488,5142 -4175,10645 -5491,16192 -670,2824 -1185,5684 -1505,8570 -314,2826 -451,5669 -537,8510 -23,773 -268,1571 -250,2311 20,859 250,1693 251,2577 2,1299 -7,2603 101,3899 107,1268 257,2532 364,3801 485,5727 1949,11473 3763,16916 1802,5404 4049,10797 6999,15682 2031,3363 4165,6669 6524,9813 3085,4113 6640,7793 10406,11282 2831,2623 5787,5123 9004,7264 2746,1828 5621,3454 8453,5145 536,320 1079,629 1639,906 6357,3147 12954,5564 19857,7201 2375,564 4789,951 7202,1314 2333,351 4687,716 7051,745 944,12 1881,-61 2827,-10 774,42 1565,253 2324,253 840,0 1697,-234 2558,-260 2805,-84 5611,-226 8400,-545 2843,-325 5662,-840 8447,-1497 2884,-680 5745,-1468 8556,-2408 5160,-1724 10185,-4034 14908,-6728l26 -15zm13706 -42109c0,-3211 1519,-4533 2637,-7225 939,-2263 1777,-4566 2552,-6890 2231,-6685 3020,-13957 2775,-20983 -254,-7291 -1631,-14771 -4354,-21553 -5384,-13411 -13525,-23157 -25542,-31138 -1674,-1112 -3468,-2024 -5257,-2932 -1059,-539 -2310,-1158 -3089,-2073 -900,-1056 -1064,-2470 -1064,-3805 0,-2561 2777,-4447 5148,-4447l70 0 70 7c1629,166 7376,3476 8937,4512 2103,1397 4179,2835 6192,4359 1973,1494 3901,3064 5648,4821 1038,1044 2098,2067 3119,3128 986,1024 1913,2102 2806,3208 2360,2924 4620,5935 6595,9136 2753,4460 4869,9234 6648,14156 3199,8851 4417,18558 4000,27941 -435,9786 -2681,19805 -7104,28580 -616,1223 -1275,3025 -2179,4016 -1124,1234 -2722,1771 -4366,1525 -1476,-222 -2925,-1071 -3695,-2370 -357,-603 -547,-1271 -547,-1973zm-131216 -33447c0,-9119 1871,-18826 5277,-27286 610,-1517 1218,-3036 1950,-4500 748,-1495 1473,-3366 2744,-4490 962,-851 2103,-1151 3363,-1151 2218,0 4681,2174 4681,4447 0,2372 -229,2346 -1227,4339 -1627,3251 -3092,6689 -4069,10195 -1543,5530 -2565,11167 -2696,16918 -128,5607 589,11183 1714,16667 1835,8946 8323,21562 14661,28141 1102,1144 2183,2309 3311,3427 1246,1236 2572,2387 3912,3520 2199,1858 4501,3570 6995,5014 1979,1146 4024,2172 6028,3273 1512,830 2214,1648 2648,3335 843,3281 -1811,6218 -5084,6218l-34 0 -35 -2c-1463,-74 -5525,-2451 -6935,-3289 -2167,-1289 -4319,-2619 -6334,-4139 -1311,-989 -2649,-1938 -3877,-3032 -1267,-1129 -2619,-2145 -3816,-3353 -1610,-1624 -3215,-3252 -4739,-4956 -1763,-1970 -3397,-4051 -4900,-6225 -8903,-12882 -13538,-27398 -13538,-43071zm-7260 55649l-969 -1451c-372,-558 -775,-1088 -1120,-1664 -1663,-2778 -3309,-5570 -4754,-8470 -1581,-3172 -2910,-6459 -4211,-9753 -533,-1352 -1016,-2723 -1464,-4105 -348,-1070 -683,-2145 -914,-3248l-155 -742 -46046 0c-1944,0 -3702,598 -5427,1452 -5842,2893 -8120,7857 -8120,14200 0,2683 1332,5746 2921,7869 4121,5508 9359,5912 15772,5912l54487 0z"></path></g></svg>