<svg width="21" height="20" viewBox="0 0 21 20" xmlns="http://www.w3.org/2000/svg">
<path fill-rule="evenodd" clip-rule="evenodd" d="M2.29599 13.4645C3.33479 12.5268 4.74371 12 6.2128 12H15.0755C16.5447 12 17.9536 12.5268 18.9923 13.4645C20.0311 14.4021 20.6148 15.6739 20.6148 17V19C20.6148 19.5523 20.1188 20 19.5069 20C18.8951 20 18.3991 19.5523 18.3991 19V17C18.3991 16.2044 18.0489 15.4413 17.4256 14.8787C16.8023 14.3161 15.9569 14 15.0755 14H6.2128C5.33134 14 4.48599 14.3161 3.86271 14.8787C3.23943 15.4413 2.88927 16.2044 2.88927 17V19C2.88927 19.5523 2.39327 20 1.78143 20C1.16959 20 0.673584 19.5523 0.673584 19V17C0.673584 15.6739 1.25717 14.4021 2.29599 13.4645Z"/>
<path fill-rule="evenodd" clip-rule="evenodd" d="M10.643 2C8.80739 2 7.31945 3.34315 7.31945 5C7.31945 6.65685 8.80739 8 10.643 8C12.4786 8 13.9665 6.65685 13.9665 5C13.9665 3.34315 12.4786 2 10.643 2ZM5.10376 5C5.10376 2.23858 7.58376 0 10.643 0C13.7022 0 16.1822 2.23858 16.1822 5C16.1822 7.76142 13.7022 10 10.643 10C7.58376 10 5.10376 7.76142 5.10376 5Z" />
</svg>
